<?xml version="1.0"?>
<svg width="115" height="34" xmlns="http://www.w3.org/2000/svg" xmlns:svg="http://www.w3.org/2000/svg">
 <g class="layer">
  <title>Layer 1</title>
  <path clip-rule="evenodd" d="m17,34c9.39,0 17,-7.61 17,-17c0,-9.39 -7.61,-17 -17,-17c-9.39,0 -17,7.61 -17,17c0,9.39 7.61,17 17,17zm5.3,-26.08c0.26,-0.92 -0.63,-1.46 -1.44,-0.88l-11.35,8.08c-0.88,0.63 -0.74,1.88 0.21,1.88l2.99,0l0,-0.02l5.82,0l-4.74,1.67l-2.09,7.43c-0.26,0.92 0.63,1.46 1.44,0.88l11.35,-8.08c0.88,-0.63 0.74,-1.88 -0.21,-1.88l-4.53,0l2.55,-9.08z" fill="#0260FF" fill-rule="evenodd" id="svg_1">S</path>
  <text fill="#ffffff" font-family="Monospace" font-size="26" font-style="normal" font-weight="normal" id="svg_4" letter-spacing="0" stroke-width="0" text-anchor="middle" transform="matrix(0.838207 0 0 0.88166 14.145 3.89735)" x="75.61" xml:space="preserve" y="23.73">Seeker</text>
 </g>
</svg>